<?xml version="1.0" encoding="UTF-8"?>
<svg width="22px" height="22px" viewBox="0 0 22 22" version="1.1" xmlns="http://www.w3.org/2000/svg" xmlns:xlink="http://www.w3.org/1999/xlink">
    <!-- Generator: Sketch 51.3 (57544) - http://www.bohemiancoding.com/sketch -->
    <title>facebook-logo</title>
    <desc>Created with Sketch.</desc>
    <defs></defs>
    <g id="концепции" stroke="none" stroke-width="1" fill="none" fill-rule="evenodd">
        <g id="Unics-Desktop-HD" transform="translate(-1460.000000, -6086.000000)" fill="#FFFFFF" fill-rule="nonzero">
            <g id="Group-14" transform="translate(1398.000000, 6086.000000)">
                <g id="Group">
                    <g id="facebook-logo" transform="translate(62.000000, 0.000000)">
                        <path d="M17.875,0 L4.125,0 C1.84630769,0 0,1.82232967 0,4.07142857 L0,17.6428571 C0,19.891956 1.84630769,21.7142857 4.125,21.7142857 L17.875,21.7142857 C20.1536923,21.7142857 22,19.891956 22,17.6428571 L22,4.07142857 C22,1.82232967 20.1536923,0 17.875,0 Z M17.3156923,11.693978 L15.257,11.693978 L15.257,19.2138022 L11.8190769,19.2138022 L11.8190769,11.693978 L10.4855385,11.693978 L10.4855385,9.16092308 L11.8190769,9.16092308 L11.8190769,7.54738462 C11.8199231,5.43191209 12.7100769,4.17582418 15.2358462,4.17582418 L17.7954615,4.17582418 L17.7954615,6.69969231 L16.3087692,6.69969231 C15.3255385,6.69969231 15.2612308,7.06131868 15.2612308,7.7378022 L15.257,9.16008791 L17.5957692,9.16008791 L17.3156923,11.693978 Z" id="Shape"></path>
                    </g>
                </g>
            </g>
        </g>
    </g>
</svg>