<?xml version="1.0" encoding="UTF-8"?>
<svg width="128px" height="43px" viewBox="0 0 128 43" version="1.1" xmlns="http://www.w3.org/2000/svg" xmlns:xlink="http://www.w3.org/1999/xlink">
    <!-- Generator: Sketch 51.3 (57544) - http://www.bohemiancoding.com/sketch -->
    <title>logo</title>
    <desc>Created with Sketch.</desc>
    <defs></defs>
    <g id="концепции" stroke="none" stroke-width="1" fill="none" fill-rule="evenodd">
        <g id="Unics-Desktop-HD" transform="translate(-289.000000, -40.000000)">
            <g id="logo" transform="translate(289.000000, 40.000000)">
                <path d="M23.3225134,3.8504403 L23.3225134,27.5400441 C23.3225134,31.8950335 22.3258201,35.2243139 20.3281,37.5193377 C18.3303798,39.8143616 15.4443026,40.9640104 11.6698683,40.9640104 C7.97776953,40.9640104 5.1696944,39.8229092 3.23697602,37.5449805 C1.30859109,35.2670517 0.342231903,31.8950335 0.342231903,27.441747 L0.342231903,3.8504403 L7.19774866,3.8504403 L7.19774866,27.9417801 C7.19774866,32.6002084 8.76645729,34.9251488 11.8952077,34.9251488 C13.3512466,34.9251488 14.4779434,34.3353661 15.2752981,33.1472532 C16.0683193,31.9634141 16.4669967,30.2795418 16.4669967,28.0913626 L16.4669967,3.8504403 L23.3225134,3.8504403 Z" id="Fill-1" fill="#FFFFFF"></path>
                <path d="M81.2147957,37.7381556 C79.559418,35.5457027 78.7317292,32.442933 78.7317292,28.4298466 L78.7317292,14.9460472 C78.7317292,10.8132948 79.5507511,7.66778724 81.1931284,5.52234594 C82.8311722,3.38117844 85.6522477,2.304184 89.6563548,2.304184 C93.4091219,2.304184 96.0741932,3.24014345 97.6515688,5.10351478 C99.2289443,6.97115989 100.017632,9.65937218 100.017632,13.1724255 L100.017632,16.3478495 L93.3007857,16.3478495 L93.3007857,13.0826759 C93.3007857,11.7449805 93.2357839,10.6936287 93.1101139,9.93289458 C92.9844439,9.17216042 92.6594352,8.54818745 92.1394213,8.06524947 C91.6194074,7.58658528 90.8090524,7.34297939 89.7040228,7.34297939 C88.5686591,7.34297939 87.7149696,7.60368043 87.1516212,8.11226113 C86.5839393,8.62511562 86.2112627,9.3131954 86.0379247,10.1636791 C85.8645867,11.0227104 85.7779177,12.1338951 85.7779177,13.5015071 L85.7779177,29.8786605 C85.7779177,32.0241018 86.0639254,33.5669391 86.6316073,34.5199937 C87.1992891,35.4687745 88.2219831,35.9431649 89.7040228,35.9431649 C90.7787182,35.9431649 91.5717394,35.6910115 92.0917533,35.1952521 C92.6117673,34.695219 92.9454428,34.0370557 93.0841132,33.2122147 C93.2271171,32.3873738 93.3007857,31.2932842 93.3007857,29.9213984 L93.3007857,26.5194636 L100.017632,26.5194636 L100.017632,29.5495789 C100.017632,33.1908458 99.2419446,36.0115455 97.6992367,38.0159518 C96.1521953,40.0246319 93.4741237,41.0246982 89.6563548,41.0246982 C85.6825819,41.0246982 82.8701733,39.9306086 81.2147957,37.7381556" id="Fill-4" fill="#FFFFFF"></path>
                <path d="M110.550081,38.1343357 C108.834035,36.2025838 107.893676,33.3263249 107.737672,29.5012851 L113.743833,28.3388149 C113.839169,30.7321359 114.224846,32.5570431 114.900864,33.8178104 C115.581215,35.0785777 116.64291,35.7068245 118.094616,35.7068245 C119.164978,35.7068245 119.962332,35.3862904 120.482346,34.7494961 C121.00236,34.1127018 121.262367,33.2493967 121.262367,32.1638547 C121.262367,30.6680291 120.924358,29.402988 120.24834,28.3601839 C119.567988,27.3173797 118.50196,26.1762785 117.054588,24.9326063 L112.227125,20.778485 C110.745086,19.5348128 109.635723,18.1971173 108.894703,16.7653986 C108.153683,15.3379536 107.781006,13.6284386 107.781006,11.6325798 C107.781006,8.67939272 108.656363,6.38864266 110.407077,4.75178207 C112.15779,3.12346906 114.580188,2.30717566 117.669938,2.30717566 C120.980693,2.30717566 123.355423,3.23031374 124.789795,5.08513749 C126.224167,6.93141366 127.051855,9.42730553 127.272861,12.5685393 L121.262367,13.5942483 C121.167031,11.5428303 120.87669,9.99571926 120.391344,8.95291512 C119.897331,7.91438477 118.943972,7.39298271 117.526934,7.39298271 C116.51724,7.39298271 115.728552,7.72633813 115.160871,8.39304897 C114.593189,9.06403359 114.311515,9.91024351 114.311515,10.9359525 C114.311515,12.1497081 114.554188,13.1668695 115.043867,13.9917105 C115.529214,14.8165515 116.326568,15.6969517 117.431598,16.6286374 L122.211393,20.778485 C124.005441,22.2999533 125.409478,23.9368139 126.419172,25.6762454 C127.428865,27.4199506 127.935879,29.4414521 127.935879,31.7407497 C127.935879,33.544288 127.532868,35.1469583 126.726847,36.5444868 C125.920825,37.9462891 124.794128,39.0403787 123.346756,39.8353031 C121.895051,40.6259538 120.222339,41.023416 118.332955,41.023416 C114.861863,41.023416 112.266126,40.0618139 110.550081,38.1343357" id="Fill-6" fill="#FFFFFF"></path>
                <path d="M63.4662875,11.4526534 L63.4272864,29.8555821 C63.4272864,32.0437613 63.0286091,33.7276335 62.2355879,34.9157464 C61.4382332,36.0995855 60.3115364,36.693642 58.8598309,36.693642 C55.735414,36.693642 54.1753722,34.3729754 54.1667053,29.7530112 C54.1667053,29.735916 54.1623719,29.7230947 54.1623719,29.7059995 L54.1623719,15.7478098 C54.1493715,11.3329873 53.1873458,7.98661178 51.2719612,5.72577823 C51.2329602,5.68304035 51.1896257,5.65739763 51.1549581,5.61465975 C49.2265731,3.41793301 46.4618325,2.30674828 42.8390689,2.30674828 C39.0646346,2.30674828 36.1785574,3.45212331 34.1808373,5.75142095 C32.1831171,8.04644481 31.1864238,11.3714514 31.1864238,15.7264408 L31.1864238,39.4160446 L38.0419406,39.4160446 L38.0419406,15.179396 C38.0419406,12.9912169 38.4406179,11.3030708 39.2336391,10.1192317 C40.0309938,8.93539259 41.1576906,8.34133614 42.6137295,8.34133614 C45.7294796,8.34133614 47.2938548,10.6577289 47.3068551,15.2819669 C47.3068551,15.2990621 47.3068551,15.3076097 47.3068551,15.3289786 L47.3068551,29.2828946 C47.3198555,33.7019908 48.2818812,37.0440926 50.1972658,39.3091999 C50.2319334,39.3519378 50.2796013,39.3775805 50.3142689,39.4160446 C52.2426538,41.6170451 55.003061,42.7282299 58.6301581,42.7282299 C62.4045924,42.7282299 65.2906696,41.578581 67.2883897,39.2835572 C69.2861098,36.9885333 70.2828032,33.6635267 70.2828032,29.3042635 L70.3218042,11.4526534 L63.4662875,11.4526534 Z" id="Fill-13" fill="#FFFFFF"></path>
                <path d="M71.3271644,4.63510767 C71.3271644,7.04979757 69.3424447,9.00719222 66.8940458,9.00719222 C64.445647,9.00719222 62.4609272,7.04979757 62.4609272,4.63510767 C62.4609272,2.22041777 64.445647,0.263023125 66.8940458,0.263023125 C69.3424447,0.263023125 71.3271644,2.22041777 71.3271644,4.63510767" id="Fill-16" fill="#FFB700"></path>
            </g>
        </g>
    </g>
</svg>