<?xml version="1.0" encoding="UTF-8"?>
<svg width="83px" height="83px" viewBox="0 0 83 83" version="1.1" xmlns="http://www.w3.org/2000/svg" xmlns:xlink="http://www.w3.org/1999/xlink">
    <!-- Generator: Sketch 51.3 (57544) - http://www.bohemiancoding.com/sketch -->
    <title>partner</title>
    <desc>Created with Sketch.</desc>
    <defs></defs>
    <g id="концепции" stroke="none" stroke-width="1" fill="none" fill-rule="evenodd">
        <g id="Unics-Desktop-HD" transform="translate(-1372.000000, -2920.000000)">
            <g id="partner" transform="translate(1372.000000, 2920.000000)">
                <rect id="Rectangle-3" fill="#2052F5" fill-rule="nonzero" opacity="0.261551339" x="0" y="16" width="67" height="67"></rect>
                <rect id="Rectangle-3" fill="#2052F5" fill-rule="nonzero" opacity="0.261551339" x="16" y="0" width="67" height="67"></rect>
                <path d="M46.2,34.9090909 C46.2,32.0011818 43.8678,29.6363636 41,29.6363636 C38.1322,29.6363636 35.8,32.0011818 35.8,34.9090909 C35.8,37.817 38.1322,40.1818182 41,40.1818182 C43.8678,40.1818182 46.2,37.817 46.2,34.9090909 L46.2,34.9090909 Z M54,53.3636364 L47.5,53.3636364 L47.5,50.7272727 L51.1192,50.7272727 C50.0454,45.7366364 45.9205,42.8181818 41,42.8181818 C36.0795,42.8181818 31.9546,45.7366364 30.8808,50.7272727 L34.5,50.7272727 L34.5,53.3636364 L28,53.3636364 C28,47.3593182 31.3579,42.8814545 36.1146,41.0689545 C34.3388,39.6202727 33.2,37.4004545 33.2,34.9090909 C33.2,30.5406364 36.6918,27 41,27 C45.3082,27 48.8,30.5406364 48.8,34.9090909 C48.8,37.4004545 47.6612,39.6202727 45.8854,41.0689545 C50.6421,42.8814545 54,47.3593182 54,53.3636364 L54,53.3636364 Z M42.3,50.7272727 L44.9,50.7272727 L44.9,53.3636364 L42.3,53.3636364 L42.3,56 L39.7,56 L39.7,53.3636364 L37.1,53.3636364 L37.1,50.7272727 L39.7,50.7272727 L39.7,48.0909091 L42.3,48.0909091 L42.3,50.7272727 Z" id="profile_plus-[#1337]" fill="#041F76"></path>
            </g>
        </g>
    </g>
</svg>