<?xml version="1.0" encoding="UTF-8"?>
<svg width="83px" height="83px" viewBox="0 0 83 83" version="1.1" xmlns="http://www.w3.org/2000/svg" xmlns:xlink="http://www.w3.org/1999/xlink">
    <!-- Generator: Sketch 51.3 (57544) - http://www.bohemiancoding.com/sketch -->
    <title>refprogram</title>
    <desc>Created with Sketch.</desc>
    <defs></defs>
    <g id="концепции" stroke="none" stroke-width="1" fill="none" fill-rule="evenodd">
        <g id="Unics-Desktop-HD" transform="translate(-1372.000000, -3152.000000)">
            <g id="refprogram" transform="translate(1372.000000, 3152.000000)">
                <rect id="Rectangle-3" fill="#2052F5" fill-rule="nonzero" opacity="0.261551339" x="0" y="16" width="67" height="67"></rect>
                <rect id="Rectangle-3" fill="#2052F5" fill-rule="nonzero" opacity="0.261551339" x="16" y="0" width="67" height="67"></rect>
                <path d="M50.4,44.625 C48.8558,44.625 47.6,43.3692 47.6,41.825 C47.6,40.2808 48.8558,39.025 50.4,39.025 C51.9442,39.025 53.2,40.2808 53.2,41.825 C53.2,43.3692 51.9442,44.625 50.4,44.625 M33.6,53.2 C32.0558,53.2 30.8,51.9442 30.8,50.4 C30.8,48.8558 32.0558,47.6 33.6,47.6 C37.3002,47.6 37.3016,53.2 33.6,53.2 M33.6,36.4 C32.0558,36.4 30.8,35.1442 30.8,33.6 C30.8,32.0558 32.0558,30.8 33.6,30.8 C37.3002,30.8 37.3016,36.4 33.6,36.4 M50.4,36.225 C48.6906,36.225 47.18,37.0076 46.1524,38.2144 L39.1426,34.167 C39.4968,30.6866 36.7766,28 33.6,28 C30.5074,28 28,30.5074 28,33.6 C28,36.6926 30.5074,39.2 33.6,39.2 C35.4858,39.2 37.1448,38.2606 38.1598,36.8326 L44.9106,40.7302 C44.7594,41.4918 44.7636,42.2254 44.9232,42.9856 L37.9974,46.9714 C36.9726,45.6582 35.3934,44.8 33.6,44.8 C30.5074,44.8 28,47.3074 28,50.4 C28,53.4926 30.5074,56 33.6,56 C36.9068,56 39.6536,53.0992 39.1146,49.5586 L46.193,45.486 C47.2192,46.6648 48.7144,47.425 50.4,47.425 C53.4926,47.425 56,44.9176 56,41.825 C56,38.7324 53.4926,36.225 50.4,36.225" id="share-[#1100]-copy" fill="#041F76"></path>
            </g>
        </g>
    </g>
</svg>