<?xml version="1.0" encoding="UTF-8"?>
<svg width="83px" height="83px" viewBox="0 0 83 83" version="1.1" xmlns="http://www.w3.org/2000/svg" xmlns:xlink="http://www.w3.org/1999/xlink">
    <!-- Generator: Sketch 51.3 (57544) - http://www.bohemiancoding.com/sketch -->
    <title>token</title>
    <desc>Created with Sketch.</desc>
    <defs></defs>
    <g id="концепции" stroke="none" stroke-width="1" fill="none" fill-rule="evenodd">
        <g id="Unics-Desktop-HD" transform="translate(-464.000000, -3152.000000)">
            <g id="token" transform="translate(464.000000, 3152.000000)">
                <rect id="Rectangle-3" fill="#2052F5" fill-rule="nonzero" opacity="0.261551339" x="0" y="16" width="67" height="67"></rect>
                <rect id="Rectangle-3" fill="#2052F5" fill-rule="nonzero" opacity="0.261551339" x="16" y="0" width="67" height="67"></rect>
                <g id="Group-19" transform="translate(29.000000, 29.000000)">
                    <path d="M20.1176976,6.81853187 L20.0933911,18.1051405 C20.0933911,19.4471617 19.8449244,20.4798891 19.3506918,21.2085647 C18.8537585,21.9346191 18.1515701,22.298957 17.2468273,22.298957 C15.2996049,22.298957 14.327344,20.8756805 14.3219426,18.0422332 C14.3219426,18.0317487 14.3192419,18.0238853 14.3192419,18.0134007 L14.3192419,9.45277285 C14.3111397,6.74514008 13.7115788,4.69279114 12.5178585,3.30621057 C12.493552,3.27999921 12.4665448,3.2642724 12.444939,3.23806105 C11.2431165,1.8907975 9.52005423,1.20930233 7.26224846,1.20930233 C4.90991733,1.20930233 3.11123474,1.91176659 1.8662007,3.32193738 C0.621166659,4.72948703 0,6.7687303 0,9.43966717 L0,23.9686201 L4.27254632,23.9686201 L4.27254632,9.10416185 C4.27254632,7.76214058 4.52101299,6.72679213 5.01524559,6.00073766 C5.51217892,5.27468318 6.21436731,4.91034537 7.12181078,4.91034537 C9.06363177,4.91034537 10.0385934,6.3310007 10.0466955,9.1670691 C10.0466955,9.17755364 10.0466955,9.18279591 10.0466955,9.19590159 L10.0466955,17.7539083 C10.0547977,20.4641622 10.6543586,22.5138901 11.8480788,23.9030918 C11.8696846,23.9293031 11.8993926,23.9450299 11.9209984,23.9686201 C13.1228209,25.3185048 14.8431824,26 17.1036889,26 C19.4560201,26 21.2547026,25.2949146 22.4997367,23.8873649 C23.7447707,22.4798153 24.3659374,20.440572 24.3659374,17.767014 L24.3902439,6.81853187 L20.1176976,6.81853187 Z" id="Fill-13" fill="#041F76"></path>
                    <path d="M25,2.72093023 C25,4.22369229 23.7715471,5.44186047 22.2560976,5.44186047 C20.740648,5.44186047 19.5121951,4.22369229 19.5121951,2.72093023 C19.5121951,1.21816818 20.740648,0 22.2560976,0 C23.7715471,0 25,1.21816818 25,2.72093023" id="Fill-16" fill="#FFB700"></path>
                </g>
            </g>
        </g>
    </g>
</svg>