<?xml version="1.0" encoding="UTF-8"?>
<svg width="22px" height="19px" viewBox="0 0 22 19" version="1.1" xmlns="http://www.w3.org/2000/svg" xmlns:xlink="http://www.w3.org/1999/xlink">
    <!-- Generator: Sketch 51.3 (57544) - http://www.bohemiancoding.com/sketch -->
    <title>twitter-logo-silhouette</title>
    <desc>Created with Sketch.</desc>
    <defs></defs>
    <g id="концепции" stroke="none" stroke-width="1" fill="none" fill-rule="evenodd">
        <g id="Unics-Desktop-HD" transform="translate(-1398.000000, -6088.000000)" fill="#FFFFFF" fill-rule="nonzero">
            <g id="Group-14" transform="translate(1398.000000, 6086.000000)">
                <g id="Group">
                    <g id="twitter-logo-silhouette" transform="translate(0.000000, 2.000000)">
                        <path d="M21.9999641,2.14038737 C21.1902418,2.50360219 20.3214216,2.74993033 19.4085654,2.8599028 C20.3406536,2.29486557 21.0541438,1.39863727 21.3923039,0.333993153 C20.5179837,0.857253944 19.5528954,1.23720846 18.5245752,1.44317939 C17.7011209,0.553901697 16.5298366,0 15.2306863,0 C12.7382876,0 10.717415,2.04577174 10.717415,4.56749647 C10.717415,4.92514353 10.757281,5.27445713 10.834281,5.60848668 C7.084,5.4177998 3.75851307,3.59888721 1.53281046,0.834982882 C1.14374837,1.50857334 0.922418301,2.29344634 0.922418301,3.13126769 C0.922418301,4.7164069 1.71977451,6.11504417 2.92955882,6.93332376 C2.18993464,6.90828701 1.49431046,6.70231607 0.885320261,6.35995308 L0.885320261,6.41701357 C0.885320261,8.6297819 2.44153268,10.4765333 4.50500327,10.896845 C4.12694118,10.9998305 3.72828105,11.056891 3.31585294,11.056891 C3.02442484,11.056891 2.74259477,11.0276693 2.46626471,10.9719917 C3.04088889,12.7881386 4.70710131,14.1088271 6.68124183,14.1450358 C5.13739542,15.3697259 3.1907549,16.0975748 1.0764183,16.0975748 C0.712124183,16.0975748 0.353294118,16.0753037 0,16.0349465 C1.99750654,17.3334004 4.36894118,18.0904709 6.91770588,18.0904709 C15.2197582,18.0904709 19.7577974,11.1292719 19.7577974,5.09217649 L19.7426634,4.50071967 C20.6293497,3.86049941 21.3964379,3.05612105 21.9999641,2.14038737 Z" id="Shape"></path>
                    </g>
                </g>
            </g>
        </g>
    </g>
</svg>